<svg xmlns="http://www.w3.org/2000/svg" viewBox="0 0 380 380" role="img" aria-label="Logo mark">
  <defs>
    <linearGradient id="barGrad" x1="0" y1="0" x2="1" y2="1">
      <stop offset="0%" stop-color="#8fc6ff"/>
      <stop offset="100%" stop-color="#5b9ee6"/>
    </linearGradient>
    <style>
      .orange { fill: #df7a11; }
      .outline { fill: #df7a11; stroke: #0f1f2b; stroke-width: 4; stroke-linejoin: round; }
    </style>
  </defs>

  <!-- Main orange check/wing -->
  <path class="orange" d="M23 61
    C15 67 10 77 10 90
    V345
    C10 357 18 367 30 367
    C39 367 48 363 53 356
    L179 187
    C181 184 185 184 188 186
    L202 198
    C212 206 225 204 234 196
    L365 77
    C372 70 373 60 368 52
    C363 45 354 41 345 41
    C337 41 329 44 323 50
    L189 171
    C184 176 176 176 171 172
    L39 63
    C34 58 28 56 23 61 Z"/>

  <!-- Left outlined star/flower -->
  <path class="outline" d="M59 191
    L69 180
    L69 164
    L85 164
    L96 154
    L107 164
    L123 164
    L123 180
    L134 191
    L123 202
    L123 218
    L107 218
    L96 229
    L85 218
    L69 218
    L69 202
    Z"/>

  <!-- Top sparkle -->
  <path class="orange" d="M183 10
    C188 32 198 42 220 47
    C198 52 188 62 183 84
    C178 62 168 52 146 47
    C168 42 178 32 183 10 Z"/>

  <!-- Growth bars -->
  <g fill="url(#barGrad)">
    <path d="M219 291 L258 258 C262 255 268 258 268 263 V357 C268 363 263 368 257 368 H230 C224 368 219 363 219 357 Z"/>
    <path d="M281 258 L320 225 C324 222 330 225 330 230 V357 C330 363 325 368 319 368 H292 C286 368 281 363 281 357 Z"/>
    <path d="M343 224 L370 197 C374 193 380 196 380 202 V357 C380 363 375 368 369 368 H354 C348 368 343 363 343 357 Z"/>
  </g>
</svg>
